<svg width="27" height="27" viewBox="0 0 27 27" fill="none" xmlns="http://www.w3.org/2000/svg">
<path d="M5.625 22.5H21.375V24.75H5.625V22.5ZM13.5 20.25C11.1131 20.25 8.82387 19.3018 7.13604 17.614C5.44821 15.9261 4.5 13.6369 4.5 11.25C4.5 8.86305 5.44821 6.57387 7.13604 4.88604C8.82387 3.19821 11.1131 2.25 13.5 2.25C15.8869 2.25 18.1761 3.19821 19.864 4.88604C21.5518 6.57387 22.5 8.86305 22.5 11.25C22.5 13.6369 21.5518 15.9261 19.864 17.614C18.1761 19.3018 15.8869 20.25 13.5 20.25ZM13.5 18C15.2902 18 17.0071 17.2888 18.273 16.023C19.5388 14.7571 20.25 13.0402 20.25 11.25C20.25 9.45979 19.5388 7.7429 18.273 6.47703C17.0071 5.21116 15.2902 4.5 13.5 4.5C11.7098 4.5 9.9929 5.21116 8.72703 6.47703C7.46116 7.7429 6.75 9.45979 6.75 11.25C6.75 13.0402 7.46116 14.7571 8.72703 16.023C9.9929 17.2888 11.7098 18 13.5 18Z" fill="#F8F8F8" fill-opacity="0.36"/>
</svg>
