<svg width="1000" height="1000" viewBox="0 0 1000 1000" fill="none" xmlns="http://www.w3.org/2000/svg">
<g clip-path="url(#clip0_2006_406)">
<mask id="mask0_2006_406" style="mask-type:luminance" maskUnits="userSpaceOnUse" x="0" y="0" width="1000" height="1000">
<path d="M1000 0H0V1000H1000V0Z" fill="white"/>
</mask>
<g mask="url(#mask0_2006_406)">
<path d="M422.66 425.571C528.425 344.312 580.552 234.688 539.088 180.719C497.624 126.75 378.271 148.873 272.506 230.132C166.74 311.391 114.613 421.015 156.077 474.984C197.541 528.953 316.894 506.83 422.66 425.571Z" fill="#B37DFF"/>
<path d="M605.579 512.714C643.682 645.424 729.466 737.245 797.184 717.802C864.901 698.36 888.909 575.016 850.806 442.307C812.703 309.597 726.919 217.776 659.201 237.219C591.484 256.661 567.477 380.005 605.579 512.714Z" fill="#B37DFF"/>
<path d="M390.35 837.237C521.267 881.104 645.543 862.512 667.927 795.709C690.311 728.906 602.328 639.19 471.411 595.322C340.494 551.455 216.218 570.048 193.834 636.85C171.45 703.653 259.433 793.369 390.35 837.237Z" fill="#B37DFF"/>
</g>
</g>
<defs>
<clipPath id="clip0_2006_406">
<rect width="1000" height="1000" fill="white"/>
</clipPath>
</defs>
</svg>
