<svg width="57" height="57" viewBox="0 0 57 57" fill="none" xmlns="http://www.w3.org/2000/svg">
<path d="M5.66278 32.7584C4.60116 25.2439 4.07153 21.489 6.32303 19.0546C8.57453 16.625 12.5835 16.625 20.5968 16.625H36.4048C44.418 16.625 48.427 16.625 50.6785 19.057C52.93 21.489 52.398 25.2439 51.3388 32.7584L50.3365 39.8834C49.5053 45.7734 49.0897 48.7207 46.9593 50.4854C44.8289 52.25 41.6868 52.25 35.4002 52.25H21.6014C15.3172 52.25 12.1727 52.25 10.0423 50.4854C7.91191 48.7207 7.49628 45.7757 6.66503 39.8834L5.66278 32.7584Z" stroke="black" stroke-width="1.5"/>
<path opacity="0.5" d="M46.4643 16.625C46.5918 15.8972 46.5585 15.1502 46.3667 14.4366C46.1749 13.723 45.8292 13.06 45.3539 12.4942C44.8786 11.9284 44.2853 11.4735 43.6155 11.1613C42.9457 10.8492 42.2157 10.6875 41.4767 10.6875H15.5322C14.7933 10.6875 14.0633 10.8492 13.3935 11.1613C12.7237 11.4735 12.1304 11.9284 11.6551 12.4942C11.1798 13.06 10.8341 13.723 10.6423 14.4366C10.4505 15.1502 10.4172 15.8972 10.5448 16.625M41.567 10.6875C41.6335 10.07 41.6691 9.76363 41.6691 9.5095C41.6717 8.33552 41.2394 7.20218 40.4557 6.3281C39.672 5.45403 38.5923 4.90115 37.425 4.77612C37.1732 4.75 36.8645 4.75 36.247 4.75H20.762C20.1445 4.75 19.8334 4.75 19.5816 4.77612C18.4143 4.90115 17.3347 5.45403 16.5509 6.3281C15.7672 7.20218 15.3349 8.33552 15.3375 9.5095C15.3375 9.76363 15.3707 10.0724 15.4396 10.6875" stroke="black" stroke-width="1.5"/>
<path opacity="0.5" d="M39.1875 30.875C41.155 30.875 42.75 29.28 42.75 27.3125C42.75 25.345 41.155 23.75 39.1875 23.75C37.22 23.75 35.625 25.345 35.625 27.3125C35.625 29.28 37.22 30.875 39.1875 30.875Z" stroke="black" stroke-width="1.5"/>
<path opacity="0.5" d="M47.501 47.4999L40.6515 42.396C38.4427 40.7525 35.151 40.5887 32.719 42.0018L32.0873 42.3699C30.3963 43.3532 28.0972 43.1893 26.639 41.9804L17.5214 34.435C15.7021 32.9293 12.7832 32.8485 10.8476 34.2498L7.70312 36.5298" stroke="black" stroke-width="1.5" stroke-linecap="round"/>
</svg>
